Simulation
nRows=46
nColumns=15
endheader
time  TH_x TH_y TH_z SC_y  SC_z  SC_x  AC_y  AC_z  AC_x  GH_y  GH_z  GH_yy  EL_x  PS_y
0.0  0.000000  0.000000  0.000000  -27.796199667031452  2.1890292953484827  4.911909483703104  41.238963020377994  5.050454769143619  -3.8752860336023383  -27.335508140408383  -1.9537048244627095  74.42622475143327  20.59600665686622  120.000000
0.031799999999999995  0.000000  0.000000  0.000000  -26.915725510302458  3.152205042429246  5.17981423697355  40.80783522782965  4.843647022534288  -3.72767319374772  -27.21211500305766  -2.1495554555551135  74.29560012643216  20.722212917638114  120.000000
0.06359999999999999  0.000000  0.000000  0.000000  -26.1842744688495  3.9212598626338515  5.443098663793447  40.435619672672765  4.546756771259528  -3.692328619854702  -27.064678020328437  -2.3605276517945044  74.17148947784477  20.868859766890377  120.000000
0.09539999999999998  0.000000  0.000000  0.000000  -25.648930264816254  4.467794866942528  5.717723858699929  40.14223188036634  4.216535222559165  -3.7721236827888758  -26.88815538340713  -2.5507890232243944  74.04267994047784  21.025473322420765  120.000000
0.12719999999999998  0.000000  0.000000  0.000000  -25.283383671507917  4.815808471502736  6.017304916927211  39.92318152805152  3.882842501623497  -3.9587559686781737  -26.67525579828146  -2.7086956545751635  73.89964467948421  21.174533344208015  120.000000
0.15899999999999997  0.000000  0.000000  0.000000  -25.044190234156535  5.0155665713514965  6.345251315640429  39.766959997249884  3.5610236227861973  -4.223747895769141  -26.425311635619156  -2.8339349814316197  73.7275194056278  21.291743390810378  120.000000
0.19079999999999997  0.000000  0.000000  0.000000  -24.888472828917674  5.1151712828298965  6.6980192916716135  39.66180980308308  3.257878902136262  -4.53680774123449  -26.145878063473315  -2.9321780375857127  73.50561469723569  21.35977423559253  120.000000
0.22259999999999996  0.000000  0.000000  0.000000  -24.782360189080777  5.152714665918155  7.069387675996882  39.60136266866601  2.971331225193183  -4.870906602707192  -25.847277293926155  -3.0100191567035917  73.21309349548312  21.367021082461786  120.000000
0.25439999999999996  0.000000  0.000000  0.000000  -24.70396875321348  5.15383488405343  7.4522162734283794  39.58340343487125  2.6943913152734447  -5.203569293909334  -25.538859840512966  -3.071788081228303  72.83254434773316  21.306836454042934  120.000000
0.28619999999999995  0.000000  0.000000  0.000000  -24.64234942139096  5.13302360129387  7.840464872176061  39.60992376880623  2.418384395309769  -5.516879786017069  -25.22747727413411  -3.1196037013948947  72.35160441265064  21.172991304568573  120.000000
0.31799999999999995  0.000000  0.000000  0.000000  -24.5953046282988  5.098234563448836  8.230643793332677  39.68329896488535  2.1336417488397306  -5.797211601421407  -24.91677310489482  -3.152082546968008  71.76335007720132  20.958127639414204  120.000000
0.34979999999999994  0.000000  0.000000  0.000000  -24.565623733115668  5.056278474078723  8.621210382289599  39.801380058511576  1.8299714368770728  -6.036386440459019  -24.608320225137273  -3.1626832249778176  71.06520110501609  20.654347933240654  120.000000
0.38159999999999994  0.000000  0.000000  0.000000  -24.558016566603325  5.0167111443404915  9.01068330039546  39.95294655940863  1.4964266333679814  -6.233121229751284  -24.302826547479242  -3.1355927730271573  70.25757373487544  20.255434942084086  120.000000
0.41339999999999993  0.000000  0.000000  0.000000  -24.578131442137973  4.9942740436226165  9.396531007141279  40.11454914134562  1.1209946181558208  -6.393594429482221  -24.002260969283  -3.0433332468194823  69.34231852044219  19.759188428579357  120.000000
0.44519999999999993  0.000000  0.000000  0.000000  -24.631270610563668  5.007262269201516  9.77519029824164  40.2581526402384  0.6922388589063889  -6.529325307863415  -23.712716294906826  -2.846343073569498  68.32100416853086  19.17015191209273  120.000000
0.4769999999999999  0.000000  0.000000  0.000000  -24.713660425004473  5.075037604709906  10.144225030515921  40.35588097255852  0.20190735576751884  -6.652470998783535  -23.44323446150461  -2.4940615812882876  67.19733328022009  18.5113810124051  120.000000
0.5087999999999999  0.000000  0.000000  0.000000  -24.810072644860952  5.215459748217909  10.510382663457104  40.40112269583989  -0.3505441767075311  -6.767174875594134  -23.208799920864568  -1.9363666983997347  65.97630889971299  17.825241636840392  120.000000
0.5406  0.000000  0.000000  0.000000  -24.909867227052132  5.421381664901073  10.892224438519065  40.42272536184696  -0.9405144487475169  -6.863289796233368  -23.0314250679883  -1.1380079749353078  64.66500544324056  17.163566549798915  120.000000
0.5723999999999999  0.000000  0.000000  0.000000  -25.020414534037993  5.642766583742084  11.305413979535414  40.49191360433268  -1.5168464209068906  -6.916143392883132  -22.949573826361238  -0.09981601619443993  63.26234803365107  16.56463119414616  120.000000
0.6041999999999998  0.000000  0.000000  0.000000  -25.17713889154831  5.820643345758761  11.77117088909215  40.68773975984086  -2.042813750356791  -6.9161434094183765  -23.025716545200854  1.1298893450922676  61.749277816096225  16.042999690761672  120.000000
0.6359999999999999  0.000000  0.000000  0.000000  -25.436700874417625  5.927086006672415  12.316006009829989  41.03270506362488  -2.520607798964822  -6.879135175243312  -23.32830491875415  2.5096257878529054  60.10426432559544  15.607143477424772  120.000000
0.6678  0.000000  0.000000  0.000000  -25.828201119767353  5.96691610754525  12.932209135448803  41.50239996003202  -2.9707692650821  -6.807672283835235  -23.90393797865114  4.054231882469415  58.32692050628741  15.259789668053427  120.000000
0.6995999999999999  0.000000  0.000000  0.000000  -26.319450514160234  5.966711839294152  13.57668457515935  42.049192707454736  -3.407612070719696  -6.698377644491055  -24.756503998410288  5.798943744008409  56.45122447287556  15.021271603718015  120.000000
0.7313999999999998  0.000000  0.000000  0.000000  -26.845266654797772  5.95938079677832  14.204272303612644  42.60714934056144  -3.8365983757259126  -6.565663801050049  -25.83812327873048  7.759833175380657  54.54243429006311  14.932908876616356  120.000000
0.7631999999999999  0.000000  0.000000  0.000000  -27.35717304443904  5.966943706246301  14.79362486982748  43.12557390397446  -4.2509926913272755  -6.430877399162591  -27.06915482757349  9.911128120492364  52.66417214144845  15.007472663699646  120.000000
0.7949999999999999  0.000000  0.000000  0.000000  -27.849005464550643  5.997441810089869  15.35730181122583  43.59444856925773  -4.627222710461597  -6.306861181573559  -28.36418479387487  12.177975707356492  50.844564903993835  15.212814522743852  120.000000
0.8267999999999999  0.000000  0.000000  0.000000  -28.348102478476555  6.050953993964344  15.931553393283043  44.0405590493669  -4.930635689194004  -6.192174561741062  -29.64067241613057  14.458086680712013  49.07567912359331  15.486439870287018  120.000000
0.8585999999999998  0.000000  0.000000  0.000000  -28.887000321901024  6.125425987167981  16.554639822707063  44.502562096255105  -5.128035584693639  -6.075931067408883  -30.826477897471683  16.654099637310264  47.32967107210381  15.762019806163668  120.000000
0.8903999999999999  0.000000  0.000000  0.000000  -29.47915721749056  6.220835450313681  17.24674757992105  45.0054683151253  -5.201041550274823  -5.947140640672755  -31.86569617126558  18.6992453239462  45.58238027880628  15.995139614590588  120.000000
0.9221999999999999  0.000000  0.000000  0.000000  -30.10997963508694  6.3402486760660395  18.00029749348688  45.54570461038802  -5.152282571098895  -5.801318377641664  -32.72178815759474  20.56707628931683  43.83418297756473  16.172141466723527  120.000000
0.9539999999999998  0.000000  0.000000  0.000000  -30.74444769601541  6.487064999341813  18.7846316415883  46.09198085092802  -5.001950921423478  -5.643192348634379  -33.38163062825357  22.266080979443664  42.112728605872334  16.304435738391447  120.000000
0.9857999999999998  0.000000  0.000000  0.000000  -31.342767752974677  6.66270226448733  19.55995751109539  46.600120983784414  -4.779320409953414  -5.485084098289061  -33.85663437907528  23.826021328360667  40.46216214488722  16.41554529395811  120.000000
1.0175999999999998  0.000000  0.000000  0.000000  -31.87543273115346  6.866430456963905  20.29227005670871  47.031263147272206  -4.513493515138851  -5.340527257030338  -34.17973544676728  25.28175270484724  38.92481926754941  16.52945287506078  120.000000
1.0493999999999999  0.000000  0.000000  0.000000  -32.33298345230862  7.094688073099534  20.96378840278351  47.366905910116856  -4.225008432849357  -5.217371410403675  -34.398827057349884  26.65991337844209  37.52396407189886  16.663606176490074  120.000000
1.0812  0.000000  0.000000  0.000000  -32.72606647060729  7.340955053819414  21.574898122662777  47.61352224562906  -3.9222226532562634  -5.114105202585374  -34.56763220017194  27.97439413088793  36.25610763156406  16.82775079468814  120.000000
1.1129999999999998  0.000000  0.000000  0.000000  -33.07887572172921  7.596562683011174  22.13949694449192  47.79749767284564  -3.6028048158123274  -5.020207759520076  -34.736833386134236  29.22957949848049  35.09450192551995  17.026391729850168  120.000000
1.1447999999999998  0.000000  0.000000  0.000000  -33.421121180284146  7.851607051652385  22.67771055392001  47.95548658732869  -3.258076953701179  -4.919070819528746  -34.94741130689101  30.427075066145118  33.99865723953518  17.262062475920235  120.000000
1.1765999999999999  0.000000  0.000000  0.000000  -33.78130665890046  8.095618273220126  23.209327319603283  48.12540074180339  -2.877182937574614  -4.79202212421063  -35.2276242951607  31.571112516020452  32.92499117876764  17.5373732408964  120.000000
1.2083999999999997  0.000000  0.000000  0.000000  -34.18229756107544  8.318072022130993  23.74925396358375  48.33969826056888  -2.4500257167343285  -4.621737081249103  -35.592563707440206  32.67132606650361  31.83585580092781  17.855728482567677  120.000000
1.2401999999999997  0.000000  0.000000  0.000000  -34.63917153661174  8.50933153414389  24.305751001213633  48.62183398318551  -1.9684293416149432  -4.3946609868685576  -36.046006791215284  33.741259292536895  30.70503399352235  18.220816913026702  120.000000
1.2719999999999998  0.000000  0.000000  0.000000  -35.158787872152516  8.661216110577683  24.880955103464117  48.9848066029628  -1.4259032746235032  -4.102517209837149  -36.58300114555759  34.79428045783033  29.519650070895153  18.635106043685354  120.000000
1.3037999999999998  0.000000  0.000000  0.000000  -35.73968975259551  8.768053426658577  25.471975186783833  49.43076338846099  -0.8173444431217222  -3.7429246684132025  -37.192404926616845  35.83889297196942  28.28065238922574  19.09748773315641  120.000000
1.3356  0.000000  0.000000  0.000000  -36.37126911659333  8.828385687557544  26.071441321129303  49.949959951365315  -0.14019595500766593  -3.319430746939522  -37.85808030691616  36.87617186919356  27.004329099915036  19.600812270749824  120.000000
1.3673999999999997  0.000000  0.000000  0.000000  -37.03372569156912  8.845783558540369  26.66789930135234  50.52110113852214  0.6038126828686172  -2.8411008978481047  -38.55903597836894  37.89984495172449  25.72405129729851  20.129995757821305  120.000000
1.3991999999999998  0.000000  0.000000  0.000000  -37.69901581252791  8.829542986488743  27.245804723855944  51.11215234758219  1.406613076998541  -2.320980418630117  -39.26941823988827  38.89854452575503  24.489348154536565  20.662009677778773  120.000000
1.4309999999999998  0.000000  0.000000  0.000000  -38.33388708920192  8.79417274659027  27.785990603452206  51.68369332829684  2.253539004849201  -1.7742534553545155  -39.96052035723268  39.85844852186779  23.360314691217695  21.168438121861644  120.000000
